<svg width="28" height="28" viewBox="0 0 28 28" fill="none" xmlns="http://www.w3.org/2000/svg">
<path d="M23.3333 23.3333C19.3083 23.3333 14 25.6667 14 25.6667V12.8333C14 12.8333 19.25 10.5 24.5 10.5L23.3333 23.3333Z" fill="currentColor" fill-opacity="0.1"/>
<path d="M4.66667 23.3333C8.69167 23.3333 14 25.6667 14 25.6667V12.8333C14 12.8333 8.75 10.5 3.5 10.5L4.66667 23.3333Z" fill="currentColor"/>
<path d="M14 11.6666C16.5773 11.6666 18.6667 9.57725 18.6667 6.99992C18.6667 4.42259 16.5773 2.33325 14 2.33325C11.4227 2.33325 9.33334 4.42259 9.33334 6.99992C9.33334 9.57725 11.4227 11.6666 14 11.6666Z" fill="currentColor"/>
<path d="M23.9167 18.6665H24.5C24.85 18.6665 25.0833 18.4332 25.0833 18.0832V15.7498C25.0833 15.3998 24.85 15.1665 24.5 15.1665H23.9167C22.925 15.1665 22.1667 15.9248 22.1667 16.9165C22.1667 17.9082 22.925 18.6665 23.9167 18.6665ZM4.08334 15.1665H3.50001C3.15001 15.1665 2.91667 15.3998 2.91667 15.7498V18.0832C2.91667 18.4332 3.15001 18.6665 3.50001 18.6665H4.08334C5.07501 18.6665 5.83334 17.9082 5.83334 16.9165C5.83334 15.9248 5.07501 15.1665 4.08334 15.1665Z" fill="currentColor"/>
</svg>
